<svg xmlns="http://www.w3.org/2000/svg" xmlns:xlink="http://www.w3.org/1999/xlink" preserveAspectRatio="xMidYMid" width="836" height="854" viewBox="0 0 836 854">
  <defs>
    <style>
      .cls-1 {
        fill: #000;
        fill-rule: evenodd;
      }

      .cls-2 {
        fill: #00bff3;
      }
    </style>
  </defs>
  <path d="M94.000,121.575 L102.211,114.255 L248.606,278.476 L240.395,285.796 L94.000,121.575 Z" class="cls-1"/>
  <path d="M678.680,108.548 L686.280,116.500 L527.241,268.509 L519.641,260.557 L678.680,108.548 Z" class="cls-1"/>
  <path d="M664.992,535.171 L655.591,542.998 L515.015,333.811 L524.416,325.984 L664.992,535.171 Z" class="cls-1"/>
  <path d="M355.110,757.289 L347.199,766.620 L172.664,584.800 L180.575,575.469 L355.110,757.289 Z" class="cls-1"/>
  <path d="M167.791,552.145 L156.111,548.508 L255.303,316.815 L266.983,320.452 L167.791,552.145 Z" class="cls-1"/>
  <path d="M253.611,311.552 L251.883,299.442 L503.724,289.596 L505.452,301.707 L253.611,311.552 Z" class="cls-1"/>
  <circle cx="94" cy="87" r="53" class="cls-2"/>
  <circle cx="494" cy="295" r="53" class="cls-2"/>
  <circle cx="686" cy="571" r="53" class="cls-2"/>
  <circle cx="147" cy="571" r="53" class="cls-2"/>
  <circle cx="718" cy="87" r="53" class="cls-2"/>
  <circle cx="388" cy="765" r="53" class="cls-2"/>
  <circle cx="253" cy="295" r="53" class="cls-2"/>
</svg>
